HIERARCHY
ROOT root
{
	OFFSET	0	13.1	24.9
	CHANNELS 6  Xposition Yposition Zposition Xrotation Yrotation Zrotation
	JOINT spine_1
	{
		OFFSET	0	9.99999	0
		CHANNELS 3  Xrotation Yrotation Zrotation
		JOINT spine_2
		{
			OFFSET	0	112	-10
			CHANNELS 3  Xrotation Yrotation Zrotation
			JOINT spine_3
			{
				OFFSET	0	206.5	19.3
				CHANNELS 3  Xrotation Yrotation Zrotation
				JOINT spine_4
				{
					OFFSET	0	110.4	14.6
					CHANNELS 3  Xrotation Yrotation Zrotation
					JOINT neck_1
					{
						OFFSET	0	71.8	-50.3
						CHANNELS 3  Xrotation Yrotation Zrotation
						JOINT neck_2
						{
							OFFSET	0	86.2	-25.8
							CHANNELS 3  Xrotation Yrotation Zrotation
							JOINT head_ee
							{
								OFFSET	0	179.8	-8.7
								CHANNELS 3  Xrotation Yrotation Zrotation
								End Site
								{
									OFFSET	1	0	0
								}
							}
						}
					}
					JOINT left_clavicle
					{
						OFFSET	-43.2	22.4	-70.8
						CHANNELS 3  Xrotation Yrotation Zrotation
						JOINT left_shoulder
						{
							OFFSET	-93.9	-5.79999	48.7
							CHANNELS 3  Xrotation Yrotation Zrotation
							JOINT left_elbow
							{
								OFFSET	-291.4	-30.8	15.2
								CHANNELS 3  Xrotation Yrotation Zrotation
								JOINT left_lowarm_twist
								{
									OFFSET	-110.7	-3.89999	13.6
									CHANNELS 3  Xrotation Yrotation Zrotation
									JOINT left_hand
									{
										OFFSET	-110.7	-3.89999	13.6
										CHANNELS 3  Xrotation Yrotation Zrotation
										JOINT left_ee
										{
											OFFSET	-80.8	-5.10001	12.1
											CHANNELS 3  Xrotation Yrotation Zrotation
											End Site
											{
												OFFSET	1	0	0
											}
										}
									}
								}
							}
						}
					}
					JOINT right_clavicle
					{
						OFFSET	43.2	22.4	-70.8
						CHANNELS 3  Xrotation Yrotation Zrotation
						JOINT right_shoulder
						{
							OFFSET	93.9	-5.79999	48.7
							CHANNELS 3  Xrotation Yrotation Zrotation
							JOINT right_elbow
							{
								OFFSET	291.4	-30.8	15.2
								CHANNELS 3  Xrotation Yrotation Zrotation
								JOINT right_lowarm_twist
								{
									OFFSET	110.7	-3.89999	13.6
									CHANNELS 3  Xrotation Yrotation Zrotation
									JOINT right_hand
									{
										OFFSET	110.7	-3.89999	13.6
										CHANNELS 3  Xrotation Yrotation Zrotation
										JOINT right_ee
										{
											OFFSET	80.8	-5.10001	12.1
											CHANNELS 3  Xrotation Yrotation Zrotation
											End Site
											{
												OFFSET	1	0	0
											}
										}
									}
								}
							}
						}
					}
				}
			}
		}
	}
	JOINT left_hip
	{
		OFFSET	-82.8	-127.5	0.300001
		CHANNELS 3  Xrotation Yrotation Zrotation
		JOINT left_knee
		{
			OFFSET	-28.2	-396.7	2.2
			CHANNELS 3  Xrotation Yrotation Zrotation
			JOINT left_ankle
			{
				OFFSET	-11.7	-411.3	35.4
				CHANNELS 3  Xrotation Yrotation Zrotation
				JOINT left_toes
				{
					OFFSET	0	-60	-88.6
					CHANNELS 3  Xrotation Yrotation Zrotation
					JOINT left_foot_ee
					{
						OFFSET	-22.5	-16.5	-42.2
						CHANNELS 3  Xrotation Yrotation Zrotation
						End Site
						{
							OFFSET	1	0	0
						}
					}
				}
			}
		}
	}
	JOINT right_hip
	{
		OFFSET	82.8	-127.5	0.300001
		CHANNELS 3  Xrotation Yrotation Zrotation
		JOINT right_knee
		{
			OFFSET	28.2	-396.7	2.2
			CHANNELS 3  Xrotation Yrotation Zrotation
			JOINT right_ankle
			{
				OFFSET	11.7	-411.3	35.4
				CHANNELS 3  Xrotation Yrotation Zrotation
				JOINT right_toes
				{
					OFFSET	0	-60	-88.6
					CHANNELS 3  Xrotation Yrotation Zrotation
					JOINT right_foot_ee
					{
						OFFSET	22.5	-16.5	-42.2
						CHANNELS 3  Xrotation Yrotation Zrotation
						End Site
						{
							OFFSET	1	0	0
						}
					}
				}
			}
		}
	}
}
MOTION
Frames: 8
Frame Time: 0.02
1372.05 701.618 -1475.22 -12.4226459071 71.9641148068 17.2937361764 0.433021 -0.626214 -3.43182 0.43948 -0.406704 -3.46466 0.466881 0.302377 -3.4753 0.450116 -0.249936 -3.47946 -9.27657 10.5262 10.1224 -9.0404 12.8046 12.3655 -0.0 0.0 -0.0 6.94404 24.0086 12.3128 11.749 -26.0985 80.5329 2.20481 -47.517 0.970629 62.262 -1.9794 -7.31259 -1.00226 22.4195 3.13368 -0.0 0.0 -0.0 11.0491 -3.04971 -21.6091 -8.62601 -27.2309 -41.7937 0.360535 10.1264 -0.0319435 84.477 4.36402 8.84173 7.85289 -4.73281 -71.8431 0.0 0.0 0.0 -21.9446 -20.1094 1.03292 2.50676 -0.111315 -0.368512 25.8463 26.9546 -3.65597 -14.5975 0.0 0.0 -0.0 0.0 -0.0 35.1551 -11.6041 -5.32067 -12.5732 -0.310191 -1.90075 -14.5759 25.3692 -2.63789 -23.8722 0.0 0.0 0.0 0.0 0.0 
1372.05 701.618 -1475.22 -12.4646869016 72.0260369187 17.3379419219 0.433021 -0.626214 -3.43182 0.43948 -0.406704 -3.46466 0.466881 0.302377 -3.4753 0.450116 -0.249936 -3.47946 -9.27657 10.5262 10.1224 -9.0404 12.8046 12.3655 -0.0 0.0 -0.0 6.94404 24.0086 12.3128 11.749 -26.0985 80.5329 2.20481 -47.517 0.970629 62.262 -1.9794 -7.31259 -1.00226 22.4195 3.13368 -0.0 0.0 -0.0 11.0491 -3.04971 -21.6091 -8.62601 -27.2309 -41.7937 0.360535 10.1264 -0.0319435 84.477 4.36402 8.84173 7.85289 -4.73281 -71.8431 0.0 0.0 0.0 -21.9446 -20.1094 1.03292 2.50676 -0.111315 -0.368512 25.8463 26.9546 -3.65597 -14.5975 0.0 0.0 -0.0 0.0 -0.0 35.1551 -11.6041 -5.32067 -12.5732 -0.310191 -1.90075 -14.5759 25.3692 -2.63789 -23.8722 0.0 0.0 0.0 0.0 0.0 
1350.10701901 700.327 -1483.59923996 -13.9451504708 73.9257641479 19.1826239928 0.368798 -0.442952 -3.7278 0.376504 -0.205015 -3.74839 0.392979 0.562583 -3.71165 0.37376 -0.0302338 -3.75386 -9.08757 11.5231 8.90711 -8.93088 15.485 11.4019 -0.0 0.0 -0.0 6.68198 24.2066 11.9248 10.0711 -28.6174 80.6767 2.05053 -45.4429 0.858733 62.9191 -2.04059 -7.37052 -1.05164 23.682 3.38848 -0.0 0.0 -0.0 11.2293 -4.11995 -21.8791 -7.5924 -26.6168 -41.0062 0.373045 10.4701 -0.0341799 84.6769 4.38787 8.85112 7.93636 -4.89573 -74.0233 0.0 0.0 0.0 -21.9412 -20.5195 0.6206 -1.52031 0.0596064 0.225692 27.3853 26.7815 -3.84105 -9.86627 0.0 0.0 -0.0 0.0 -0.0 34.2536 -12.5686 -4.98344 -13.9301 -0.318556 -2.10876 -15.4329 26.2935 -2.82626 -24.1208 0.0 0.0 0.0 0.0 0.0 
1350.16452702 700.327 -1483.74831458 -13.6267770002 73.5472294478 18.8509812738 0.368798 -0.442952 -3.7278 0.376504 -0.205015 -3.74839 0.392979 0.562583 -3.71165 0.37376 -0.0302338 -3.75386 -9.08757 11.5231 8.90711 -8.93088 15.485 11.4019 -0.0 0.0 -0.0 6.68198 24.2066 11.9248 10.0711 -28.6174 80.6767 2.05053 -45.4429 0.858733 62.9191 -2.04059 -7.37052 -1.05164 23.682 3.38848 -0.0 0.0 -0.0 11.2293 -4.11995 -21.8791 -7.5924 -26.6168 -41.0062 0.373045 10.4701 -0.0341799 84.6769 4.38787 8.85112 7.93636 -4.89573 -74.0233 0.0 0.0 0.0 -21.9412 -20.5195 0.6206 -1.52031 0.0596064 0.225692 27.3853 26.7815 -3.84105 -9.86627 0.0 0.0 -0.0 0.0 -0.0 34.2536 -12.5686 -4.98344 -13.9301 -0.318556 -2.10876 -15.4329 26.2935 -2.82626 -24.1208 0.0 0.0 0.0 0.0 0.0 
1301.4623558 703.245 -1490.30170118 -14.8920139924 77.9652363734 20.2404529981 0.4064 -0.445773 -4.20083 0.416197 -0.177804 -4.22064 0.432979 0.682806 -4.16893 0.408734 0.0164443 -4.22434 -9.03468 9.6535 9.20604 -8.83802 11.7411 11.2546 -0.0 0.0 -0.0 5.95121 24.2195 10.9019 4.13255 -30.5306 81.0611 2.01122 -44.8887 0.830856 61.9179 -1.94762 -7.28198 -1.60978 22.0565 -0.55364 -0.0 0.0 -0.0 11.3331 -2.86558 -22.2103 -3.12353 -28.0868 -39.5635 0.439965 12.2953 -0.0473891 85.3347 4.46665 8.88145 8.0956 -1.80335 -74.1433 0.0 0.0 0.0 -21.497 -18.9087 1.75048 -6.99401 0.224142 1.04931 16.3126 29.1519 -2.43605 1.52369 -0.0 -0.0 -0.0 0.0 -0.0 29.9362 -13.1561 -4.81542 -16.106 -0.321681 -2.44257 -1.47938 21.5572 -0.250919 -24.896 0.0 0.0 0.0 0.0 0.0 
1301.57486799 703.245 -1490.81900611 -14.4021111022 77.5586613084 19.7391616535 0.4064 -0.445773 -4.20083 0.416197 -0.177804 -4.22064 0.432979 0.682806 -4.16893 0.408734 0.0164443 -4.22434 -9.03468 9.6535 9.20604 -8.83802 11.7411 11.2546 -0.0 0.0 -0.0 5.95121 24.2195 10.9019 4.13255 -30.5306 81.0611 2.01122 -44.8887 0.830856 61.9179 -1.94762 -7.28198 -1.60978 22.0565 -0.55364 -0.0 0.0 -0.0 11.3331 -2.86558 -22.2103 -3.12353 -28.0868 -39.5635 0.439965 12.2953 -0.0473891 85.3347 4.46665 8.88145 8.0956 -1.80335 -74.1433 0.0 0.0 0.0 -21.497 -18.9087 1.75048 -6.99401 0.224142 1.04931 16.3126 29.1519 -2.43605 1.52369 -0.0 -0.0 -0.0 0.0 -0.0 29.9362 -13.1561 -4.81542 -16.106 -0.321681 -2.44257 -1.47938 21.5572 -0.250919 -24.896 0.0 0.0 0.0 0.0 0.0 
1251.48231024 708.527 -1491.13073528 -13.8439133251 80.6991469791 18.8535940648 0.477371 -0.393115 -4.35214 0.487898 -0.11565 -4.3683 0.500342 0.768843 -4.30179 0.474535 0.0804833 -4.36909 -10.523 9.76575 8.52426 -10.3849 12.7407 10.7522 -0.0 0.0 -0.0 6.52647 23.3197 11.7805 -2.56566 -25.6263 79.5786 1.59433 -38.2984 0.553652 59.521 -1.73147 -7.06357 -2.61159 20.8002 -7.05441 -0.0 0.0 -0.0 11.1533 -0.707321 -22.0111 0.794729 -27.6446 -41.1667 0.357759 10.05 -0.0314572 85.2619 4.45792 8.87814 8.22187 2.22483 -71.6554 0.0 0.0 0.0 -16.333 -14.9041 2.61137 -22.2138 0.262774 3.37744 4.8016 27.7381 -0.73625 17.5254 -0.0 -0.0 -0.0 0.0 -0.0 24.3598 -14.5703 -4.30127 -14.0441 -0.319034 -2.12625 5.29126 23.1116 0.893252 -25.9013 0.0 0.0 0.0 0.0 0.0 
1228.62176048 710.743 -1490.15561219 -9.76020462467 83.1477845312 14.2276376629 0.479203 -0.335662 -4.10425 0.488569 -0.074044 -4.11726 0.497051 0.759076 -4.04748 0.474214 0.110892 -4.11644 -9.83643 8.84265 8.44429 -9.67917 10.9085 10.3855 -0.0 0.0 -0.0 6.57084 22.5481 11.9069 -4.99447 -25.7143 79.1169 1.39639 -34.6709 0.435896 57.9522 -1.59505 -6.91584 -2.62147 18.3872 -8.38493 -0.0 0.0 -0.0 11.1985 0.945079 -22.2164 2.68031 -26.3921 -42.8416 0.324343 9.12791 -0.0258907 85.3115 4.46386 8.88039 8.24214 3.61696 -70.248 0.0 0.0 0.0 -15.0014 -12.8256 1.92933 -28.131 0.111102 4.27246 -1.86105 28.0657 0.290296 21.5955 -0.0 -0.0 -0.0 0.0 -0.0 21.1275 -15.0968 -4.09009 -14.1149 -0.319314 -2.13711 11.4385 18.7622 1.808 -24.5925 0.0 0.0 0.0 0.0 0.0 
